<svg width="42" height="44" viewBox="0 0 42 44" fill="none" xmlns="http://www.w3.org/2000/svg">
<path d="M8.44667 18.8499C11.8067 25.6978 17.22 31.2874 23.8233 34.796L28.9567 29.4726C29.5867 28.8193 30.52 28.6015 31.3367 28.8918C33.95 29.7872 36.7733 30.2711 39.6667 30.2711C40.95 30.2711 42 31.36 42 32.6909V41.1358C42 42.4667 40.95 43.5556 39.6667 43.5556C17.7567 43.5556 0 25.1412 0 2.41975C0 1.08889 1.05 0 2.33333 0H10.5C11.7833 0 12.8333 1.08889 12.8333 2.41975C12.8333 5.44444 13.3 8.34815 14.1633 11.0583C14.42 11.9052 14.2333 12.8489 13.58 13.5264L8.44667 18.8499Z" fill="white"/>
</svg>
