<svg width="48" height="36" viewBox="0 0 48 36" fill="none" xmlns="http://www.w3.org/2000/svg">
<path d="M4.8 35.2C3.48 35.2 2.3496 34.7688 1.4088 33.9064C0.468004 33.044 -0.00159593 32.0085 4.0747e-06 30.8V4.4C4.0747e-06 3.19 0.470404 2.1538 1.4112 1.2914C2.352 0.429003 3.4816 -0.00146293 4.8 3.73515e-06H43.2C44.52 3.73515e-06 45.6504 0.431203 46.5912 1.2936C47.532 2.156 48.0016 3.19147 48 4.4V30.8C48 32.01 47.5296 33.0462 46.5888 33.9086C45.648 34.771 44.5184 35.2015 43.2 35.2H4.8ZM24 19.415C24.2 19.415 24.4104 19.3871 24.6312 19.3314C24.852 19.2757 25.0616 19.1935 25.26 19.085L42.24 9.35C42.56 9.16667 42.8 8.93713 42.96 8.6614C43.12 8.38567 43.2 8.08354 43.2 7.755C43.2 7.02167 42.86 6.47167 42.18 6.105C41.5 5.73834 40.8 5.75667 40.08 6.16L24 15.4L7.92 6.16C7.2 5.75667 6.5 5.74787 5.82 6.1336C5.14 6.51934 4.8 7.0598 4.8 7.755C4.8 8.12167 4.88 8.44287 5.04 8.7186C5.2 8.99434 5.44 9.2048 5.76 9.35L22.74 19.085C22.94 19.195 23.1504 19.2779 23.3712 19.3336C23.592 19.3893 23.8016 19.4165 24 19.415Z" fill="white"/>
</svg>
